<?xml version="1.0" standalone="no"?><!DOCTYPE svg PUBLIC "-//W3C//DTD SVG 1.1//EN" "http://www.w3.org/Graphics/SVG/1.1/DTD/svg11.dtd"><svg t="1659172435505" class="icon" viewBox="0 0 1024 1024" version="1.1" xmlns="http://www.w3.org/2000/svg" p-id="9391" xmlns:xlink="http://www.w3.org/1999/xlink" width="64" height="64"><defs><style type="text/css">@font-face { font-family: feedback-iconfont; src: url("//at.alicdn.com/t/font_1031158_u69w8yhxdu.woff2?t=1630033759944") format("woff2"), url("//at.alicdn.com/t/font_1031158_u69w8yhxdu.woff?t=1630033759944") format("woff"), url("//at.alicdn.com/t/font_1031158_u69w8yhxdu.ttf?t=1630033759944") format("truetype"); }
</style></defs><path d="M960.28 409.42a95.36 95.36 0 0 0-28-67.89l-209.35-209.3a96.18 96.18 0 0 0-135.76 0L91.23 628.17a96.1 96.1 0 0 0 0 135.76l127.49 127.49a95.38 95.38 0 0 0 67.88 28.12h346.91a32 32 0 0 0 0-64H554L932.24 477.3a95.34 95.34 0 0 0 28.04-67.88zM304.15 855.54H286.6a31.82 31.82 0 0 1-22.6-9.37L136.49 718.68a32.18 32.18 0 0 1 0-45.26l129.84-129.84 254.55 254.56-48 48a31.82 31.82 0 0 1-22.63 9.37zM887 432L566.14 752.89 311.58 498.33l320.84-320.84a32.18 32.18 0 0 1 45.26 0L887 386.79a32.17 32.17 0 0 1 0 45.21z" fill="#999999" p-id="9392"></path></svg>